<?xml version="1.0" standalone="no"?>
<!DOCTYPE svg PUBLIC "-//W3C//DTD SVG 20010904//EN"
 "http://www.w3.org/TR/2001/REC-SVG-20010904/DTD/svg10.dtd">
<svg version="1.0" xmlns="http://www.w3.org/2000/svg"
 width="700.000000pt" height="700.000000pt" viewBox="0 0 700.000000 700.000000"
 preserveAspectRatio="xMidYMid meet">
<metadata>
Created by potrace 1.11, written by Peter Selinger 2001-2013
</metadata>
<g transform="translate(0.000000,700.000000) scale(0.100000,-0.100000)"
fill="#000000" stroke="none">
<path d="M3278 6995 c-2 -2 -41 -5 -88 -9 -47 -4 -96 -8 -110 -10 -14 -2 -46
-7 -71 -10 -55 -8 -103 -16 -106 -19 -1 -2 79 -242 100 -297 3 -8 22 -64 42
-125 58 -171 171 -504 315 -925 130 -379 264 -772 300 -880 10 -30 78 -228
150 -440 190 -555 174 -500 152 -523 -18 -18 -20 -17 -47 37 -15 31 -45 71
-66 90 -32 30 -43 53 -73 148 -19 62 -78 253 -131 423 -54 171 -108 344 -120
385 -47 151 -340 1093 -457 1465 -53 172 -70 226 -143 465 -26 85 -51 159 -56
164 -12 13 -271 -47 -436 -101 -139 -45 -283 -100 -295 -111 -4 -4 34 -77 84
-162 50 -85 100 -171 111 -190 22 -40 319 -547 442 -755 45 -77 97 -165 114
-195 18 -30 36 -62 41 -70 6 -8 44 -73 86 -145 75 -127 95 -162 132 -227 54
-94 308 -528 327 -558 12 -19 57 -96 100 -170 43 -74 98 -168 122 -208 25 -41
42 -76 40 -78 -2 -3 -16 0 -30 5 -14 6 -46 11 -70 12 l-44 3 -79 144 c-43 80
-94 173 -112 206 -18 34 -47 86 -64 116 -17 30 -43 78 -58 105 -15 28 -93 172
-175 320 -81 149 -184 335 -228 415 -43 80 -94 174 -113 209 -19 35 -38 69
-43 75 -4 6 -34 61 -66 121 -32 61 -61 115 -65 120 -4 6 -29 51 -56 100 -26
50 -58 108 -70 130 -13 22 -29 51 -37 65 -7 14 -33 61 -57 105 -24 44 -93 170
-153 280 -60 110 -112 203 -115 207 -8 8 -286 -128 -359 -175 -24 -15 -47 -27
-53 -27 -5 0 -10 -4 -10 -10 0 -5 -5 -10 -11 -10 -6 0 -64 -37 -130 -82 l-120
-81 24 -26 c13 -14 44 -48 69 -76 26 -27 56 -61 68 -75 26 -30 144 -162 220
-245 30 -33 91 -101 135 -150 44 -49 107 -119 140 -155 33 -36 96 -106 141
-155 44 -50 128 -142 185 -205 152 -169 156 -173 176 -196 10 -12 55 -61 99
-110 44 -49 127 -141 184 -204 57 -63 138 -153 181 -200 42 -47 86 -94 96
-106 22 -26 149 -167 223 -248 86 -94 116 -129 144 -161 l25 -29 -42 -14 c-23
-8 -48 -19 -56 -25 -14 -12 -22 -5 -126 118 -27 32 -54 63 -60 69 -5 6 -57 67
-115 136 -57 69 -107 127 -110 130 -3 3 -30 34 -60 70 -30 36 -65 76 -76 90
-54 62 -163 191 -204 240 -25 29 -50 58 -55 64 -6 6 -46 54 -90 106 -44 52
-82 97 -85 100 -3 3 -41 48 -85 100 -44 52 -84 100 -90 106 -5 6 -30 35 -55
64 -25 30 -92 108 -148 174 -57 67 -111 130 -120 141 -73 87 -390 460 -460
540 -19 22 -48 57 -65 77 l-31 37 -45 -36 c-123 -99 -215 -181 -313 -278 -122
-121 -218 -228 -217 -241 0 -5 84 -70 186 -144 210 -152 1112 -811 1303 -952
69 -51 148 -108 175 -127 28 -19 52 -37 55 -41 3 -4 30 -24 61 -46 77 -53 383
-277 389 -284 3 -3 37 -28 75 -55 39 -27 75 -54 82 -60 6 -5 55 -41 108 -79
l97 -70 -24 -17 c-13 -10 -37 -26 -54 -35 l-31 -17 -224 174 c-123 95 -226
176 -229 179 -3 3 -52 41 -110 85 -58 44 -112 85 -120 92 -15 12 -102 81 -171
134 -19 15 -108 84 -199 155 -373 289 -749 581 -810 629 -50 40 -521 405 -576
447 -22 17 -241 -293 -367 -518 -32 -56 -57 -105 -57 -108 0 -4 42 -26 92 -50
51 -24 262 -123 468 -221 206 -98 417 -197 468 -221 50 -24 134 -64 185 -88
50 -24 135 -64 187 -89 52 -24 142 -67 200 -95 58 -27 139 -65 180 -85 41 -19
129 -60 195 -92 66 -31 156 -74 200 -95 44 -21 130 -61 190 -90 244 -117 322
-153 361 -170 23 -10 44 -23 48 -28 3 -5 -18 -25 -47 -45 l-52 -35 -325 166
c-179 90 -415 211 -525 267 -110 56 -321 164 -470 240 -148 76 -369 188 -490
250 -121 62 -367 187 -546 279 -179 91 -329 166 -332 166 -24 0 -194 -437
-243 -622 -8 -32 -17 -64 -20 -72 -4 -10 10 -19 53 -31 32 -9 65 -18 73 -20
20 -4 467 -119 590 -152 52 -13 102 -26 110 -28 15 -3 318 -81 645 -165 88
-23 230 -59 315 -81 85 -22 214 -55 285 -74 158 -41 583 -150 683 -175 41 -10
76 -21 78 -23 3 -2 -6 -11 -18 -20 -13 -8 -38 -29 -57 -46 -19 -16 -38 -28
-42 -25 -5 2 -70 23 -146 44 -76 22 -174 51 -218 65 -44 13 -105 31 -135 39
-30 8 -212 60 -405 116 -455 133 -691 201 -1010 294 -683 198 -776 225 -794
231 -16 5 -21 -8 -45 -132 -28 -144 -32 -173 -41 -263 -3 -30 -8 -71 -10 -90
-11 -91 -16 -258 -8 -263 5 -3 63 -9 129 -12 65 -3 146 -7 179 -10 33 -2 110
-7 170 -10 61 -3 142 -8 180 -10 39 -2 113 -7 165 -10 52 -3 131 -7 175 -10
165 -10 263 -15 360 -20 55 -3 136 -7 180 -10 152 -9 250 -15 350 -20 55 -3
129 -8 165 -10 36 -2 115 -7 175 -10 61 -3 137 -8 170 -10 33 -2 119 -7 190
-10 72 -4 131 -8 133 -10 1 -1 -12 -28 -30 -59 l-33 -56 -45 5 c-94 10 -138
14 -225 20 -49 4 -101 8 -115 10 -14 2 -61 7 -105 10 -44 3 -91 8 -105 10 -14
2 -61 7 -105 10 -44 4 -96 8 -115 10 -19 2 -73 6 -120 10 -47 4 -92 8 -100 10
-8 2 -60 7 -115 11 -55 3 -108 8 -119 10 -10 2 -53 6 -95 10 -42 3 -92 7 -111
9 -19 2 -73 6 -120 10 -47 3 -92 8 -100 10 -8 2 -60 7 -115 11 -55 3 -102 8
-105 9 -3 2 -52 6 -110 10 -58 4 -112 8 -120 10 -8 2 -49 6 -90 9 -160 14
-196 17 -230 21 -19 2 -73 7 -119 11 l-83 6 6 -153 c3 -85 8 -167 10 -184 2
-16 7 -57 11 -90 3 -33 8 -71 9 -85 12 -87 19 -130 28 -170 5 -25 12 -56 14
-70 21 -109 83 -326 136 -470 27 -75 107 -269 114 -278 1 -2 22 -6 45 -8 54
-7 66 -14 48 -28 -8 -6 -22 -21 -33 -33 -18 -21 -18 -24 -2 -48 l17 -26 100
103 c142 147 624 632 700 704 127 120 220 176 344 209 292 75 548 -147 557
-485 3 -134 -26 -270 -82 -379 -17 -34 -23 -38 -52 -36 -124 10 -258 102 -302
206 -11 26 -10 42 4 101 17 72 13 159 -9 181 -6 6 -27 1 -58 -14 -36 -18 -133
-109 -378 -355 -533 -536 -585 -591 -585 -626 0 -8 9 -23 20 -33 19 -17 20
-17 26 1 16 42 199 238 214 229 6 -4 26 -31 45 -61 83 -130 142 -277 160 -400
4 -21 9 -48 12 -58 3 -11 5 -67 4 -127 l0 -107 60 -53 c113 -99 333 -266 414
-316 305 -185 517 -288 772 -374 109 -37 341 -101 408 -114 238 -43 299 -52
426 -61 72 -5 89 -4 90 7 1 16 -3 0 49 214 22 94 43 181 46 195 3 14 23 97 44
185 22 88 55 225 74 305 19 80 55 228 80 330 24 102 58 245 76 318 42 179 41
178 87 186 21 3 49 9 62 12 20 6 22 4 17 -14 -4 -11 -9 -29 -11 -39 -5 -18
-15 -55 -80 -273 -20 -69 -52 -177 -70 -240 -18 -63 -61 -209 -95 -325 -34
-116 -77 -262 -95 -325 -19 -63 -61 -209 -94 -324 -34 -115 -61 -213 -61 -218
0 -9 421 -3 520 7 36 4 68 10 73 14 8 8 12 60 22 281 4 85 8 182 10 214 2 33
6 134 10 225 3 91 8 186 10 211 2 25 7 126 10 225 4 99 8 200 10 225 2 25 7
117 10 205 9 214 9 213 20 224 10 9 105 61 112 61 2 0 2 -17 -1 -37 -3 -21 -8
-63 -11 -93 -3 -30 -7 -79 -10 -107 -3 -29 -7 -74 -10 -100 -2 -27 -7 -79 -10
-118 -3 -38 -7 -90 -10 -115 -4 -42 -9 -97 -20 -210 -2 -25 -7 -70 -10 -100
-3 -30 -8 -82 -10 -115 -3 -33 -8 -82 -11 -110 -7 -77 -13 -133 -20 -215 -7
-78 -7 -81 -18 -195 -9 -99 -14 -150 -21 -230 -3 -38 -8 -83 -11 -98 -5 -28
-4 -29 33 -23 131 19 285 50 397 81 70 19 130 35 133 35 4 0 0 32 -12 100 -2
8 -6 38 -9 65 -6 50 -16 117 -21 145 -2 9 -6 43 -10 75 -4 33 -9 69 -11 80 -4
20 -31 202 -40 263 -10 75 -14 106 -39 277 -14 99 -28 196 -31 215 -3 19 -7
46 -9 60 -2 14 -7 45 -10 70 -3 25 -8 56 -10 70 -2 14 -7 45 -10 70 -3 25 -8
56 -10 70 -2 14 -7 45 -11 70 -3 25 -11 82 -18 128 l-12 83 52 39 c29 22 55
36 57 32 3 -4 8 -45 12 -92 3 -47 8 -98 10 -115 4 -29 8 -80 20 -215 3 -36 8
-78 10 -95 2 -16 7 -66 10 -110 4 -44 9 -88 11 -98 2 -10 6 -58 9 -105 3 -48
8 -94 10 -102 4 -13 9 -68 20 -195 4 -53 16 -179 20 -215 3 -19 7 -66 11 -105
3 -38 7 -83 10 -100 4 -33 16 -164 19 -210 1 -16 5 -56 10 -87 l7 -57 117 41
c64 22 139 51 168 64 28 13 54 24 57 24 3 0 39 16 81 36 60 28 75 40 70 53 -4
9 -24 66 -45 126 -21 61 -70 202 -110 315 -39 113 -110 315 -156 450 -47 135
-98 281 -114 325 -48 135 -117 335 -152 438 l-33 99 45 39 c24 21 48 35 51 31
4 -4 12 -23 17 -42 5 -19 58 -197 117 -395 59 -198 113 -380 120 -405 21 -72
88 -298 154 -520 34 -113 78 -261 98 -330 20 -69 37 -126 39 -128 2 -3 125 59
199 101 75 43 275 179 275 187 0 5 -26 51 -57 102 -31 51 -119 197 -196 323
-77 127 -159 260 -181 297 -23 37 -69 113 -104 170 -35 57 -67 110 -72 118
-31 49 -199 326 -269 443 l-84 138 44 44 43 44 54 -97 c29 -53 74 -135 99
-182 25 -47 83 -152 128 -235 77 -140 108 -198 182 -335 17 -30 98 -179 180
-330 227 -417 236 -433 247 -457 6 -13 14 -23 17 -23 14 0 219 170 309 256
l94 91 -51 54 c-28 30 -64 68 -79 85 -75 81 -201 219 -217 237 -10 12 -44 48
-75 82 -31 33 -95 103 -142 155 -47 52 -112 124 -146 160 -34 36 -72 77 -85
92 -14 14 -62 67 -108 117 -45 49 -90 98 -99 109 -9 10 -58 64 -108 118 -160
173 -163 177 -153 196 5 9 12 40 17 69 l7 53 130 -155 c72 -86 148 -177 170
-204 22 -27 45 -53 50 -59 6 -6 78 -92 160 -191 82 -99 159 -191 171 -205 28
-32 278 -333 324 -389 19 -24 40 -48 45 -55 6 -6 55 -64 110 -130 l100 -118
74 78 c59 63 140 159 194 229 4 5 23 30 41 54 l34 44 -151 115 c-84 63 -195
147 -247 186 -52 39 -101 77 -110 83 -20 17 -267 204 -575 437 -137 104 -263
200 -280 214 l-30 25 35 -9 c19 -4 65 -8 101 -9 l67 0 83 -70 c46 -38 95 -80
109 -92 14 -12 171 -144 350 -295 179 -150 336 -283 350 -294 126 -108 270
-229 292 -245 l26 -19 53 83 c69 106 66 100 123 203 27 49 58 104 68 121 l20
33 -114 54 c-62 29 -189 91 -283 136 -162 79 -217 105 -560 270 -298 143 -375
181 -375 188 1 4 22 23 48 43 l47 36 49 -29 c27 -16 76 -44 110 -62 33 -18
133 -74 221 -123 88 -50 187 -105 220 -123 33 -18 65 -36 70 -40 6 -4 36 -21
68 -39 137 -75 178 -98 282 -156 189 -106 227 -127 229 -123 5 7 66 139 66
143 0 2 11 28 24 57 13 29 40 99 60 155 l35 102 -42 11 c-23 6 -82 22 -132 35
-112 30 -294 77 -445 116 -63 16 -175 46 -249 65 -73 20 -140 37 -150 39 -9 2
-52 13 -96 25 -44 12 -104 28 -134 36 -30 7 -56 15 -58 17 -2 2 17 24 43 49
l46 45 611 -203 c436 -146 613 -201 618 -192 21 34 107 413 123 543 4 28 9 68
12 90 3 22 8 54 10 70 8 60 11 532 4 610 -15 154 -21 210 -25 225 -2 8 -7 35
-10 60 -26 199 -111 504 -207 745 -145 364 -377 736 -646 1034 -79 88 -154
163 -158 158 -2 -1 -25 -68 -53 -147 -27 -80 -90 -264 -141 -410 -50 -146
-118 -344 -152 -440 -80 -234 -90 -250 -165 -290 -136 -71 -303 31 -303 185 0
42 3 51 250 765 162 467 221 642 218 645 -34 25 -243 164 -299 198 -126 75
-296 162 -434 220 -135 57 -374 141 -381 134 -5 -5 -9 -44 -19 -172 -3 -44 -8
-100 -10 -125 -2 -25 -7 -76 -10 -115 -6 -84 -13 -170 -20 -247 -3 -32 -7 -84
-10 -115 -2 -32 -7 -87 -10 -123 -2 -36 -7 -96 -10 -135 -5 -70 -10 -127 -20
-240 -2 -33 -7 -88 -10 -122 -3 -35 -7 -89 -10 -120 -3 -32 -7 -87 -10 -123
-3 -36 -7 -90 -10 -120 -3 -30 -7 -84 -10 -120 -3 -36 -7 -90 -10 -120 -3 -30
-7 -89 -10 -130 -3 -41 -8 -95 -10 -120 -2 -25 -7 -79 -10 -120 -3 -41 -7
-100 -10 -130 -3 -30 -7 -83 -10 -117 -13 -161 -16 -189 -21 -203 -4 -8 -33
-40 -66 -70 l-59 -55 6 70 c4 38 8 77 10 86 2 10 6 50 10 91 3 40 8 84 10 98
2 14 7 50 10 80 3 30 7 66 10 80 2 14 7 55 10 92 3 37 7 75 9 85 2 10 7 54 11
98 4 44 8 82 10 85 2 3 6 43 10 90 4 47 9 93 10 102 2 9 6 43 10 75 3 32 8 74
10 93 8 73 35 317 40 365 3 28 8 66 10 85 7 52 13 108 20 170 3 30 8 71 10 90
3 19 14 118 25 220 29 264 30 271 35 313 11 82 14 115 20 182 3 39 8 81 10 95
3 14 7 50 10 80 3 30 8 72 11 92 6 41 20 34 -132 72 -71 18 -201 44 -259 52
-22 2 -71 9 -110 15 -38 5 -109 12 -156 16 l-86 5 7 -48 c10 -65 19 -128 25
-189 3 -27 8 -66 11 -85 2 -19 7 -53 10 -75 3 -22 7 -53 9 -70 22 -170 35
-270 40 -320 4 -33 8 -67 10 -75 2 -8 6 -40 10 -70 3 -30 8 -71 11 -90 2 -19
7 -53 10 -75 2 -22 7 -56 9 -75 3 -19 7 -55 10 -80 3 -25 14 -112 25 -195 25
-192 27 -210 35 -270 3 -27 8 -63 10 -80 2 -16 7 -52 10 -80 3 -27 8 -65 11
-83 2 -18 7 -54 10 -80 3 -26 7 -58 9 -72 2 -14 7 -47 10 -75 3 -27 8 -66 11
-86 2 -20 7 -54 9 -75 8 -62 25 -196 30 -229 2 -16 9 -70 15 -120 11 -88 14
-113 24 -185 3 -19 10 -75 16 -124 l11 -90 -55 -55 -56 -56 -1 35 c-1 19 -3
44 -4 55 -2 11 -6 56 -10 100 -3 44 -8 91 -10 105 -2 14 -9 75 -15 135 -5 61
-12 135 -15 165 -3 30 -8 78 -10 105 -3 28 -7 66 -9 85 -3 19 -7 67 -11 105
-3 39 -8 81 -10 95 -2 14 -7 61 -10 105 -3 44 -8 87 -10 95 -2 8 -6 53 -10
100 -4 47 -8 96 -10 110 -1 14 -6 61 -10 104 -4 43 -8 86 -10 95 -1 9 -6 52
-10 96 -4 44 -8 92 -10 107 -2 14 -6 59 -10 100 -3 40 -8 84 -10 98 -2 14 -7
59 -10 100 -3 41 -8 86 -10 100 -2 14 -6 57 -10 95 -3 39 -8 86 -10 105 -2 19
-7 62 -10 95 -8 104 -17 189 -20 215 -2 14 -6 54 -10 90 -3 36 -8 85 -11 110
-7 63 -12 112 -19 210 -4 47 -12 88 -18 92 -9 6 -383 8 -389 3z m2027 -1364
c-3 -12 -37 -109 -74 -218 l-68 -196 -39 -16 c-151 -62 -200 -144 -219 -361
-3 -36 -7 -81 -10 -100 -2 -19 -7 -62 -10 -95 -3 -33 -7 -82 -10 -110 -3 -27
-7 -79 -10 -115 -2 -36 -8 -110 -12 -165 -33 -423 21 -587 222 -687 28 -14 78
-31 113 -38 52 -11 62 -16 63 -34 6 -87 -12 -125 -103 -216 -98 -98 -137 -130
-159 -130 -25 0 -159 65 -221 108 -61 42 -154 137 -197 202 -73 109 -112 223
-137 400 -6 46 -6 359 0 440 2 25 7 90 10 145 4 55 9 111 11 125 2 14 7 59 10
100 3 41 8 89 9 105 2 17 7 64 11 105 4 41 9 82 10 92 2 9 7 38 11 65 26 182
149 372 311 479 113 75 277 127 417 133 75 2 78 2 71 -18z m670 -263 c71 -77
116 -146 149 -229 49 -124 57 -178 51 -379 -3 -102 -7 -203 -9 -225 -16 -181
-23 -258 -31 -325 -2 -19 -7 -60 -10 -90 -7 -73 -15 -137 -20 -180 -3 -19 -7
-57 -11 -85 -3 -27 -7 -61 -9 -75 -3 -14 -7 -43 -11 -64 -22 -142 -95 -279
-211 -395 -46 -46 -86 -81 -89 -78 -4 3 -1 28 6 54 16 62 22 224 10 288 -18
94 -52 185 -97 257 -12 20 -21 45 -19 55 2 10 7 45 10 78 4 33 11 94 16 135
15 124 19 162 25 240 4 41 8 91 11 110 11 100 19 239 19 355 -1 122 -2 133
-28 182 -14 28 -31 54 -36 57 -4 3 9 54 29 113 21 60 55 156 75 215 l37 107
42 -29 c24 -16 69 -57 101 -92z m-890 -1163 c231 -38 470 -219 582 -440 84
-166 91 -395 17 -562 -58 -133 -239 -329 -462 -502 -154 -119 -355 -28 -354
160 1 68 31 119 108 181 109 88 299 280 319 323 26 55 24 146 -4 206 -55 116
-189 212 -311 224 -19 1 -38 3 -42 4 -23 4 -37 183 -29 383 l1 37 68 -4 c37
-2 85 -7 107 -10z m-701 -422 c14 -86 42 -175 93 -290 3 -7 -37 -55 -87 -107
-67 -68 -104 -99 -134 -109 -138 -46 -272 42 -280 186 -5 89 16 121 211 315
l177 177 7 -65 c4 -36 10 -84 13 -107z m-687 36 c143 -69 157 -267 25 -362
-26 -19 -139 -96 -252 -171 -113 -76 -224 -159 -247 -184 -119 -129 -130 -367
-25 -566 27 -52 33 -72 25 -84 -12 -20 -103 -68 -188 -102 -33 -13 -78 -31
-100 -40 -84 -37 -79 -39 -123 52 -22 46 -49 115 -60 153 -19 66 -25 89 -38
160 -20 102 -9 277 26 404 39 147 155 315 280 409 63 47 493 334 513 342 40
16 119 11 164 -11z m-1022 -751 c-10 -36 -14 -51 -21 -88 -9 -48 -12 -261 -4
-285 9 -27 2 -55 -14 -55 -7 0 -111 -30 -232 -66 -120 -37 -225 -67 -233 -68
-8 -1 -20 24 -31 66 -25 98 -67 173 -133 244 -47 50 -54 63 -40 67 10 3 160
48 333 100 413 124 384 118 375 85z m668 -22 c232 -118 379 -336 379 -561 -1
-231 -138 -416 -396 -535 -168 -77 -490 -196 -881 -326 -291 -96 -332 -106
-450 -109 -225 -6 -444 88 -613 263 -66 68 -162 209 -162 238 0 11 307 319
368 369 l32 27 0 -34 c0 -18 -7 -58 -15 -88 -13 -49 -13 -60 1 -103 19 -57 93
-142 165 -188 64 -40 158 -67 227 -63 103 6 905 282 1152 397 155 72 191 161
104 257 -44 48 -64 119 -64 220 0 110 14 166 60 231 26 35 32 36 93 5z m1110
-287 c44 -12 102 -59 123 -102 25 -47 29 -121 10 -171 -27 -69 -268 -283 -479
-426 -219 -147 -481 -213 -691 -175 l-59 10 29 15 c184 92 322 241 373 402 9
28 24 43 59 64 70 41 213 150 343 263 64 56 132 108 150 116 41 17 90 19 142
4z m-3144 -996 c48 -57 148 -140 223 -185 l68 -40 -207 -205 -208 -206 -12 71
c-18 108 -50 215 -90 303 l-36 80 109 110 c60 60 112 109 115 109 4 0 21 -17
38 -37z"/>
</g>
</svg>
